<?xml version="1.0" encoding="UTF-8" standalone="no"?>
<svg
   width="27.869956087995117mm"
   height="25.92532152388979mm"
   viewBox="0 0 27.869956087995117 25.92532152388979"
   version="1.1"
   id="svg1"
   sodipodi:docname="albireo-logo-thin.svg"
   inkscape:version="1.3.2 (091e20ef0f, 2023-11-25, custom)"
   xmlns:inkscape="http://www.inkscape.org/namespaces/inkscape"
   xmlns:sodipodi="http://sodipodi.sourceforge.net/DTD/sodipodi-0.dtd"
   xmlns="http://www.w3.org/2000/svg"
   xmlns:svg="http://www.w3.org/2000/svg">
  <defs
     id="defs1" />
  <sodipodi:namedview
     id="namedview1"
     pagecolor="#ffffff"
     bordercolor="#000000"
     borderopacity="0.25"
     inkscape:showpageshadow="2"
     inkscape:pageopacity="0.0"
     inkscape:pagecheckerboard="0"
     inkscape:deskcolor="#d1d1d1"
     inkscape:document-units="mm"
     inkscape:zoom="3.5377065"
     inkscape:cx="43.955031"
     inkscape:cy="110.94759"
     inkscape:window-width="1250"
     inkscape:window-height="2081"
     inkscape:window-x="1287"
     inkscape:window-y="48"
     inkscape:window-maximized="1"
     inkscape:current-layer="svg1" />
  <g
     id="Sketch"
     transform="translate(10.273235,15.991833) scale(1,-1)"
     style="fill:#000000;stroke-width:0;stroke-dasharray:none">
    <path
       id="Sketch_w0000"
       d="M -3.4641016151377553 2.0 L -6.7320507995982375 7.660254024038833 L -3.2679492004017607 9.660254051649938 L 0.0 4.0 L 3.2679493013871164 9.660254226561703 L 6.732050698612882 7.660253849127069 L 3.464101615137755 2.0 L 10.000000133949401 1.9999999999999998 L 9.999999866050599 -2.0 L 3.4641016151377553 -2.0 L 6.732050835516496 -7.660254086251081 L 3.267949164483502 -9.660253989437688 L 0.0 -4.0 L -3.2679492068173914 -9.660254062762135 L -6.732050793182607 -7.660254012926636 L -3.464101615137755 -2.0 L -9.999999967359795 -2.0 L -10.000000032640207 1.9999999999999996 L -3.4641016151377553 2.0 "
       stroke="#000000"
       stroke-width="0.7 px"
       style="stroke-width:0;stroke-miterlimit:4;stroke-dasharray:none;stroke-linecap:square;fill:#000000;fill-opacity:1;fill-rule:evenodd" />
    <path
       id="Sketch_w0001"
       d="M 10.591435520570439 11.88847071498987 L 8.957460924354878 14.718597733912063 L 10.689511731923755 15.718597733912063 L 12.323486328139316 12.88847071498987 L 13.957460924354873 15.718597733912056 L 15.68951173192375 14.718597733912056 L 14.055537135708194 11.88847071498987 L 17.32348632813932 11.88847071498987 L 17.32348632813932 9.88847071498987 L 14.055537135708194 9.88847071498987 L 15.689511731923735 7.058343696067708 L 13.957460924354855 6.058343696067707 L 12.323486328139316 8.88847071498987 L 10.68951173192375 6.058343696067667 L 8.957460924354871 7.058343696067668 L 10.591435520570439 9.88847071498987 L 7.323486328139315 9.888470714989872 L 7.323486328139315 11.888470714989872 L 10.591435520570439 11.88847071498987 "
       stroke="#000000"
       stroke-width="0.7 px"
       style="stroke-width:0;stroke-miterlimit:4;stroke-dasharray:none;stroke-linecap:square;fill:#000000;fill-opacity:1;fill-rule:evenodd" />
    <circle
       cx="11.417105602518879"
       cy="-6.591669067770842"
       r="2.5"
       stroke="#000000"
       stroke-width="0.7 px"
       style="stroke-width:0;stroke-miterlimit:4;stroke-dasharray:none;stroke-linecap:square;fill:#000000"
       id="circle1" />
    <title
       id="title1">b'Sketch'</title>
  </g>
</svg>
