<?xml version="1.0" encoding="UTF-8" standalone="no"?>
<svg
   width="28.090585849928388mm"
   height="25.92953064557401mm"
   viewBox="0 0 28.090585849928388 25.92953064557401"
   version="1.1"
   id="svg1"
   sodipodi:docname="albireo-logo.svg"
   inkscape:version="1.3.2 (091e20ef0f, 2023-11-25, custom)"
   xmlns:inkscape="http://www.inkscape.org/namespaces/inkscape"
   xmlns:sodipodi="http://sodipodi.sourceforge.net/DTD/sodipodi-0.dtd"
   xmlns="http://www.w3.org/2000/svg"
   xmlns:svg="http://www.w3.org/2000/svg">
  <defs
     id="defs1" />
  <sodipodi:namedview
     id="namedview1"
     pagecolor="#ffffff"
     bordercolor="#000000"
     borderopacity="0.25"
     inkscape:showpageshadow="2"
     inkscape:pageopacity="0.0"
     inkscape:pagecheckerboard="0"
     inkscape:deskcolor="#d1d1d1"
     inkscape:document-units="mm"
     inkscape:zoom="3.2589507"
     inkscape:cx="53.084571"
     inkscape:cy="48.942134"
     inkscape:window-width="1882"
     inkscape:window-height="2081"
     inkscape:window-x="15"
     inkscape:window-y="48"
     inkscape:window-maximized="1"
     inkscape:current-layer="svg1" />
  <path
     id="Sketch_w0000"
     d="M 5.945271,13.243879 3.1103346,8.3336251 7.4404614,5.8336249 10.275398,10.743879 13.110334,5.833625 17.440461,8.3336249 14.605525,13.243879 h 5.669873 l 0,5 h -5.669873 l 2.834937,4.910254 -4.330128,2.5 -2.834936,-4.910254 -2.8349364,4.910254 -4.3301272,-2.5 2.8349366,-4.910254 H 0.275398 v -5 h 5.669873"
     stroke="#000000"
     stroke-width="0.7 px"
     style="fill:#1a1a1a;fill-opacity:1;fill-rule:evenodd;stroke-width:0;stroke-linecap:square;stroke-miterlimit:4;stroke-dasharray:none" />
  <path
     id="Sketch_w0001"
     d="m 20.650125,3.980525 -1.417469,-2.455127 2.165064,-1.25 1.417468,2.455127 1.417468,-2.455127 2.165064,1.25 -1.417468,2.455127 h 2.834936 V 6.4805251 H 24.980252 L 26.39772,8.9356522 24.232656,10.185652 22.815188,7.7305251 21.39772,10.185652 19.232656,8.9356522 20.650125,6.4805251 H 17.815188 V 3.980525 h 2.834937"
     stroke="#000000"
     stroke-width="0.7 px"
     style="fill:#1a1a1a;fill-opacity:1;fill-rule:evenodd;stroke-width:0;stroke-linecap:square;stroke-miterlimit:4;stroke-dasharray:none" />
  <circle
     cx="21.76145"
     cy="-22.375355"
     r="2.5"
     stroke="#000000"
     stroke-width="0.7 px"
     style="fill:#1a1a1a;stroke-width:0;stroke-linecap:square;stroke-miterlimit:4;stroke-dasharray:none"
     id="circle1"
     transform="scale(1,-1)" />
</svg>
